# xmcd
#
# Track frame offsets:
#	150
#	20390
#	37710
#	49645
#	65235
#	77900
#	92850
#	97855
#	108370
#	119425
#	132605
#	143220
#	152180
#	161175
#	173645
#	185015
#	199750
#	211215
#
# Disc length: 3124 seconds
#
# Revision: 0
# Processed by: cddbd v1.4PL0 Copyright (c) Steve Scherf et al.
# Submitted via: dBpowerAMP V4.0
#
DISCID=fc0c3212
DTITLE=Memphis Slim - Lonely Nights
DYEAR=1998
DGENRE=Blues
TTITLE0=Bye Bye will be on my way
TTITLE1=Letter home
TTITLE2=Memphis slim USA
TTITLE3=Born with the Blues
TTITLE4=Rocking the House
TTITLE5=I wanna Dance
TTITLE6=Coco Boogie
TTITLE7=Fat Cat
TTITLE8=Chunkin
TTITLE9=Lonely Nights
TTITLE10=Walk on
TTITLE11=Pretending I'm Happy
TTITLE12=The natural Fact
TTITLE13=Blues Universal
TTITLE14=She's gone for Twelve Hours
TTITLE15=My walking Shoes
TTITLE16=When I'm gone
TTITLE17=T.W.A.
EXTD=
EXTT0=
EXTT1=
EXTT2=
EXTT3=
EXTT4=
EXTT5=
EXTT6=
EXTT7=
EXTT8=
EXTT9=
EXTT10=
EXTT11=
EXTT12=
EXTT13=
EXTT14=
EXTT15=
EXTT16=
EXTT17=
PLAYORDER=
